<?xml version="1.0" standalone="no"?>
<svg viewBox="0 0 200 200" xmlns="http://www.w3.org/2000/svg">
  <path fill="#F1C21B" d="M39.3,-45.1C54.2,-43.3,71.7,-36.1,77.1,-24C82.6,-11.8,76.1,5.4,67.5,18.8C58.8,32.2,48.1,41.8,36.5,47.7C24.9,53.5,12.4,55.7,-0.9,56.9C-14.2,58.1,-28.4,58.4,-35.2,51C-41.9,43.5,-41.2,28.4,-46.7,14.5C-52.3,0.6,-64,-12,-65.6,-25.6C-67.1,-39.2,-58.4,-53.8,-45.7,-56.3C-33.1,-58.7,-16.6,-49.1,-2.2,-46.1C12.2,-43.2,24.5,-46.8,39.3,-45.1Z" transform="translate(100 100)" />
</svg>
